<?xml version="1.0" standalone="no"?><!DOCTYPE svg PUBLIC "-//W3C//DTD SVG 1.1//EN" "http://www.w3.org/Graphics/SVG/1.1/DTD/svg11.dtd"><svg width="100%" height="100%" viewBox="0 0 280 63" version="1.1" xmlns="http://www.w3.org/2000/svg" xmlns:xlink="http://www.w3.org/1999/xlink" xml:space="preserve" style="fill-rule:evenodd;clip-rule:evenodd;stroke-linejoin:round;stroke-miterlimit:1.41421;"><g id="Layer 1"><path d="M41.556,61.617l-12.359,0l0,-27.942l0,-2.508c0,-2.866 -0.868,-4.954 -2.598,-6.27c-1.732,-1.312 -3.671,-1.97 -5.821,-1.97c-2.15,0 -4.061,0.658 -5.732,1.97c-1.674,1.316 -2.508,3.404 -2.508,6.27l0,30.45l-12.538,0l0,-27.942c0,-8.12 2.118,-13.552 6.359,-16.301c4.237,-2.745 8.925,-4.237 14.061,-4.478c2.745,0 5.432,0.3 8.06,0.896c2.625,0.599 5.015,1.791 7.165,3.582c1.791,-1.55 3.91,-2.655 6.359,-3.313c2.446,-0.655 4.985,-1.044 7.613,-1.165c5.253,0 10.089,1.375 14.508,4.12c4.417,2.748 6.628,8.301 6.628,16.659l0,27.942l-6.269,0c-1.792,0 -3.256,-0.565 -4.389,-1.701c-1.136,-1.134 -1.702,-2.598 -1.702,-4.389l0,-24.36c0,-2.866 -0.867,-4.954 -2.597,-6.27c-1.732,-1.312 -3.672,-1.97 -5.821,-1.97c-2.15,0 -4.092,0.658 -5.822,1.97c-1.732,1.316 -2.597,3.404 -2.597,6.27l0,30.45Z" style="fill:#ed1651;fill-rule:nonzero;"/><path d="M88.903,25.793c-2.508,2.749 -3.644,6.838 -3.403,12.27c0.237,5.435 1.254,9.225 3.045,11.375c0.716,0.957 1.97,1.762 3.761,2.418c1.791,0.657 3.611,0.715 5.464,0.178c1.849,-0.537 3.492,-1.881 4.925,-4.03c1.434,-2.149 2.208,-5.611 2.329,-10.389c0,-4.299 -0.688,-7.523 -2.06,-9.673c-1.374,-2.149 -2.956,-3.52 -4.747,-4.119c-1.791,-0.596 -3.582,-0.627 -5.373,-0.09c-1.792,0.538 -3.107,1.226 -3.941,2.06M80.305,57.318c-2.507,-2.149 -4.298,-5.043 -5.373,-8.687c-1.075,-3.641 -1.612,-7.434 -1.612,-11.374c0,-3.224 0.447,-6.448 1.343,-9.673c0.895,-3.224 2.298,-5.911 4.209,-8.06c3.104,-3.582 7.104,-5.701 12.001,-6.358c4.895,-0.656 9.315,-0.269 13.256,1.164c4.536,1.791 7.881,4.898 10.03,9.314c2.029,3.94 3.045,8.539 3.045,13.793c0,3.822 -0.42,7.105 -1.254,9.851c-0.837,2.748 -1.911,5.076 -3.224,6.985c-2.866,3.941 -6.51,6.39 -10.926,7.344c-3.941,1.075 -7.912,1.164 -11.912,0.269c-4.002,-0.896 -7.195,-2.418 -9.583,-4.568" style="fill:#ed1651;fill-rule:nonzero;"/><path d="M161.135,61.617l-6.27,0c-1.791,0 -3.254,-0.565 -4.388,-1.701c-1.137,-1.134 -1.701,-2.598 -1.701,-4.389l0,-24.36c0,-2.866 -0.869,-4.954 -2.598,-6.27c-1.732,-1.312 -3.672,-1.97 -5.821,-1.97c-2.15,0 -4.061,0.658 -5.732,1.97c-1.674,1.316 -2.508,3.404 -2.508,6.27l0,30.45l-12.539,0l0,-27.942c0,-8.12 2.119,-13.552 6.359,-16.301c4.238,-2.745 8.926,-4.237 14.061,-4.478c5.253,0 10.09,1.375 14.509,4.12c4.416,2.748 6.628,8.301 6.628,16.659l0,27.942Z" style="fill:#ed1651;fill-rule:nonzero;"/><path d="M176.785,32.958l18.271,0c-0.241,-3.224 -1.075,-5.611 -2.508,-7.165c-1.553,-1.67 -3.762,-2.507 -6.627,-2.507c-2.628,0 -4.778,0.837 -6.448,2.507c-1.674,1.674 -2.57,4.061 -2.688,7.165M198.28,46.93l8.956,0c-1.315,5.014 -3.823,8.838 -7.523,11.463c-3.703,2.749 -8.36,4.12 -13.972,4.12c-6.807,0 -12.121,-2.208 -15.941,-6.627c-3.824,-4.299 -5.733,-10.449 -5.733,-18.449c0,-7.641 1.851,-13.614 5.554,-17.913c3.82,-4.416 9.135,-6.628 15.941,-6.628c7.165,0 12.718,2.15 16.659,6.449c3.82,4.419 5.731,10.568 5.731,18.449l0,1.971c0,0.598 -0.062,1.015 -0.179,1.254l-30.988,0c0.118,3.702 1.014,6.448 2.688,8.239c1.549,1.912 3.878,2.866 6.985,2.866c2.029,0 3.762,-0.417 5.194,-1.254c0.359,-0.117 0.686,-0.327 0.986,-0.627l0.985,-0.985c0.117,-0.359 0.565,-0.834 1.343,-1.433c0.775,-0.596 1.881,-0.895 3.314,-0.895" style="fill:#ed1651;fill-rule:nonzero;"/><path d="M230.04,61.617c-3.941,0.238 -8.212,0.179 -12.808,-0.179c-4.598,-0.358 -6.896,-3.283 -6.896,-8.777l0,-52.661l6.448,0c1.551,0 2.925,0.599 4.12,1.791c1.193,1.195 1.791,2.628 1.791,4.299l0,8.06l7.345,0l0,2.508c0,1.791 -0.6,3.255 -1.792,4.388c-1.194,1.137 -2.628,1.702 -4.299,1.702l-1.254,0l0,26.51c0,2.032 1.193,3.045 3.583,3.045l3.762,0l0,9.314Z" style="fill:#ed1651;fill-rule:nonzero;"/><path d="M259.076,37.615c-1.674,0.837 -4.003,1.612 -6.986,2.328l-4.12,0.896c-2.149,0.599 -3.704,1.375 -4.657,2.329c-0.838,1.315 -1.254,2.628 -1.254,3.94c0,1.791 0.538,3.225 1.613,4.299c1.074,0.957 2.625,1.433 4.656,1.433c3.341,0 5.971,-0.954 7.882,-2.866c1.909,-1.909 2.865,-4.537 2.865,-7.881l0,-4.478ZM261.941,59.646c-2.507,1.316 -5.166,2.119 -7.971,2.419c-2.806,0.296 -5.284,0.447 -7.433,0.447c-4.3,0 -8.062,-1.164 -11.284,-3.493c-3.226,-2.328 -4.838,-6.179 -4.838,-11.552c0,-5.016 1.461,-8.598 4.389,-10.748c2.924,-2.149 6.655,-3.583 11.195,-4.298c0.596,0 1.312,-0.09 2.149,-0.269c0.834,-0.18 1.791,-0.328 2.867,-0.448c5.252,-0.717 7.88,-2.267 7.88,-4.657c0,-1.791 -0.925,-2.955 -2.776,-3.493c-1.853,-0.537 -3.553,-0.806 -5.104,-0.806c-1.673,0 -3.166,0.241 -4.478,0.717c-1.315,0.478 -2.27,1.374 -2.865,2.686l-12.002,0c0.476,-3.7 2.149,-6.744 5.015,-9.135c3.225,-2.745 7.821,-4.12 13.793,-4.12c6.686,0 11.702,1.136 15.046,3.404c3.462,2.39 5.195,5.732 5.195,10.031l0,16.3c0,4.777 -0.868,8.507 -2.598,11.194c-1.732,2.687 -3.792,4.63 -6.18,5.821" style="fill:#ed1651;fill-rule:nonzero;"/><path d="M274.94,57.345c0.668,0 1.648,0.112 1.648,-0.846c0,-0.734 -0.601,-0.825 -1.18,-0.825l-1.349,0l0,1.671l0.881,0ZM277.157,59.976l-0.691,0l-1.348,-2.173l-1.059,0l0,2.173l-0.578,0l0,-4.715l2.062,0c1.248,0 1.67,0.47 1.67,1.25c0,0.924 -0.646,1.27 -1.482,1.292l1.426,2.173ZM278.595,57.614c0,-2.051 -1.493,-3.656 -3.544,-3.656c-2.061,0 -3.566,1.605 -3.566,3.656c0,2.071 1.505,3.676 3.566,3.676c2.051,0 3.544,-1.605 3.544,-3.676M270.817,57.614c0,-2.319 1.894,-4.213 4.234,-4.213c2.329,0 4.213,1.894 4.213,4.213c0,2.339 -1.884,4.234 -4.213,4.234c-2.34,0 -4.234,-1.895 -4.234,-4.234" style="fill:#ed1651;fill-rule:nonzero;"/></g></svg>